HIERARCHY
ROOT Hips
{
	OFFSET 0.00000 0.00000 0.00000
	CHANNELS 6 Xposition Yposition Zposition Yrotation Zrotation Xrotation 
	JOINT Lumbar
	{
		OFFSET 0 0 0
		CHANNELS 3 Zrotation Xrotation Yrotation
		JOINT Neck
		{
			OFFSET 0.00 0.2701 0.00
			CHANNELS 3 Zrotation Xrotation Yrotation
			End Site
			{
				OFFSET 0.00 0.1379 0.00
			}
		}
		JOINT RightShoulder
		{
			OFFSET 0.0119 0.2289 0.1181
			CHANNELS 3 Zrotation Xrotation Yrotation
			JOINT RightElbow
			{
				OFFSET 0.00 -0.1475 0.00
				CHANNELS 2 Zrotation Yrotation
				JOINT RightWrist
				{
					OFFSET 0.00 -0.1605 0.00
					CHANNELS 2 Zrotation Xrotation
					End Site
					{
						OFFSET 0.0040 -0.1068 0.0006
					}
				}
			}
		}
		JOINT LeftShoulder
		{
			OFFSET 0.0119 0.2289 -0.1181
			CHANNELS 3 Zrotation Xrotation Yrotation
			JOINT LeftElbow
			{
				OFFSET 0.00 -0.1475 0.00
				CHANNELS 2 Zrotation Yrotation
				JOINT LeftWrist
				{
					OFFSET 0.00 -0.1605 0.00
					CHANNELS 2 Zrotation Xrotation
					End Site
					{
						OFFSET 0.0040 -0.1068 -0.0006
					}
				}
			}
		}
	}
	JOINT RightHip
	{
		OFFSET 0.0316 -0.0424 0.0458
		CHANNELS 3 Zrotation Xrotation Yrotation
		JOINT RightKnee
		{
			OFFSET 0.00 -0.2438 0.00
			CHANNELS 1 Zrotation
			JOINT RightAnkle
			{
				OFFSET 0.00 -0.2449 0.00
				CHANNELS 3 Zrotation Xrotation Yrotation
				End Site
				{
					OFFSET 0.1237 -0.0542 0.0051
				}
			}
		}
	}
	JOINT LeftHip
	{
		OFFSET 0.0316 -0.0424 -0.0458
		CHANNELS 3 Zrotation Xrotation Yrotation
		JOINT LeftKnee
		{
			OFFSET 0.00 -0.2438 0.00
			CHANNELS 1 Zrotation
			JOINT LeftAnkle
			{
				OFFSET 0.00 -0.2449 0.00
				CHANNELS 3 Zrotation Xrotation Yrotation
				End Site
				{
					OFFSET 0.1237 -0.0542 -0.0051
				}
			}
		}
	}
}
MOTION
Frames: 11
Frame Time: 0.02
-0.00024 -2e-05 -4e-05 -174.06503 -41.02234 -2.33803 49.60664 1.60978 -7.28223 3.16954 -0.76891 -0.36845 -21.02755 -12.197 -0.04529 34.6015 93.63189 6.2533 1.11402 -21.10718 22.01094 -16.55707 45.85648 -84.9618 5.39607 2.0005 44.88664 0.00785 -12.05112 -19.21653 -6.16129 -2.85505 -2.09211 47.4566 1.17788 -0.13229 -25.14481 -6.58715 4.01469 2.71024
-0.00038 -2e-05 -1e-05 -174.1855 -41.01653 -2.35844 49.66008 1.61726 -7.25178 3.14758 -0.69461 -0.36916 -20.92855 -11.85588 0.27231 34.71211 93.46582 6.21243 1.07139 -21.17057 21.54876 -16.90705 46.16862 -84.94907 5.37993 2.01263 44.88353 0.06789 -11.72167 -19.21486 -6.16501 -2.87777 -2.10709 47.42271 1.25628 0.19981 -25.13731 -6.57444 3.9762 2.69074
-0.00051 -3e-05 1e-05 -174.30551 -41.01071 -2.3788 49.71333 1.62467 -7.22158 3.12573 -0.62046 -0.36987 -20.82978 -11.51559 0.5891 34.82241 93.30031 6.17176 1.02889 -21.23374 21.08704 -17.25593 46.48016 -84.94147 5.36615 2.02386 44.88039 0.12778 -11.39311 -19.2132 -6.16871 -2.90043 -2.12204 47.38888 1.33456 0.5314 -25.12983 -6.56175 3.93777 2.67125
-0.00064 -3e-05 4e-05 -174.42559 -41.00492 -2.39915 49.76659 1.63212 -7.19126 3.10385 -0.54638 -0.37058 -20.73107 -11.17547 0.90576 34.93269 93.13476 6.13103 0.98639 -21.29694 20.62608 -17.60481 46.7914 -84.92956 5.35043 2.03582 44.87728 0.18764 -11.06465 -19.21154 -6.17242 -2.92308 -2.13698 47.35509 1.41275 0.86258 -25.12235 -6.54907 3.89939 2.6518
-0.00077 -3e-05 7e-05 -174.54617 -40.99915 -2.41955 49.82006 1.63966 -7.16062 3.08184 -0.47217 -0.37129 -20.63217 -10.83464 1.22314 35.04328 92.96864 6.09008 0.94377 -21.36035 20.16515 -17.95487 47.10313 -84.91074 5.33148 2.04901 44.87422 0.24763 -10.73536 -19.20988 -6.17614 -2.94577 -2.15195 47.32124 1.491 1.19403 -25.11487 -6.53638 3.86099 2.63234
-0.0009 -4e-05 9e-05 -174.66497 -40.99321 -2.43981 49.87284 1.64682 -7.13132 3.06033 -0.39815 -0.372 -20.53369 -10.49555 1.53866 35.15295 92.80443 6.05 0.90151 -21.423 19.70186 -18.30126 47.41426 -84.92675 5.32856 2.05611 44.87092 0.3073 -10.40836 -19.20823 -6.17981 -2.9684 -2.16685 47.28745 1.56935 1.52588 -25.1074 -6.52369 3.82249 2.6128
-0.00103 -4e-05 0.00012 -174.7872 -40.98763 -2.46032 49.92693 1.65472 -7.09941 3.03785 -0.32385 -0.37271 -20.43445 -10.15322 1.85762 35.26437 92.63652 6.0082 0.85858 -21.48716 19.24354 -18.65448 47.72621 -84.8724 5.29344 2.07546 44.86809 0.36754 -10.07711 -19.20656 -6.18358 -2.99112 -2.18186 47.25359 1.64742 1.85665 -25.0999 -6.51101 3.78423 2.59344
-0.00116 -4e-05 0.00015 -174.90632 -40.98171 -2.48061 49.97983 1.66194 -7.06984 3.01623 -0.24979 -0.37342 -20.33595 -9.81408 2.17335 35.37414 92.4721 5.96801 0.81627 -21.54983 18.78116 -19.00171 48.03746 -84.88343 5.28788 2.08352 44.86484 0.42727 -9.74976 -19.20491 -6.18726 -3.01376 -2.19678 47.2198 1.72572 2.18823 -25.09243 -6.49832 3.74577 2.57393
-0.00129 -4e-05 0.00017 -175.02146 -40.97538 -2.5006 50.03126 1.6683 -7.0434 2.99581 -0.17603 -0.37412 -20.23813 -9.47784 2.48553 35.48206 92.31158 5.9297 0.77465 -21.61108 18.31135 -19.34054 48.34783 -84.97333 5.31939 2.07757 44.86101 0.48637 -9.42712 -19.20325 -6.19082 -3.0363 -2.21157 47.18604 1.80451 2.52179 -25.08498 -6.4856 3.70693 2.55415
-0.00143 -5e-05 0.0002 -175.15896 -40.97142 -2.52225 50.09106 1.67953 -6.99977 2.96893 -0.10053 -0.37485 -20.13574 -9.1219 2.81932 35.60115 92.12752 5.88029 0.72889 -21.68174 17.87687 -19.72447 48.66322 -84.60636 5.14048 2.15161 44.86032 0.54907 -9.0772 -19.20155 -6.19504 -3.05941 -2.22707 47.15192 1.88111 2.84698 -25.07737 -6.47301 3.66988 2.53568
-0.00154 -5e-05 0.00023 -175.24962 -40.96248 -2.54042 50.13326 1.68057 -6.99186 2.95538 -0.02876 -0.37553 -20.04342 -8.80951 3.10671 35.69632 91.99381 5.85448 0.69198 -21.73174 17.37271 -20.01531 48.96797 -85.20471 5.40345 2.05738 44.85314 0.60417 -8.78499 -19.19998 -6.19788 -3.08132 -2.24108 47.11868 1.96191 3.18779 -25.07013 -6.4602 3.62933 2.51461
